<svg width="161" height="42" viewBox="0 0 161 42" fill="none" xmlns="http://www.w3.org/2000/svg">
<path d="M4.97437 28.682L0 13.3091H1.98446L6.15181 26.6976L10.1207 13.3091H12.4227L16.4181 26.6976L20.5259 13.3091H22.5368L17.622 28.682H15.2075L11.2717 15.6904L7.33587 28.682H4.98098H4.97437ZM24.7925 21.0088C24.7925 24.4882 26.5719 27.2466 30.1373 27.2466C33.7027 27.2466 35.4556 24.4882 35.4556 21.0088C35.4556 17.5294 33.6762 14.7445 30.1373 14.7445C26.5983 14.7445 24.7925 17.5029 24.7925 21.0088ZM22.8411 20.9823C22.8411 16.213 25.7119 12.9916 30.1373 12.9916C34.5626 12.9916 37.407 16.213 37.407 20.9823C37.407 25.7516 34.5361 28.9995 30.1373 28.9995C25.7384 28.9995 22.8411 25.7781 22.8411 20.9823ZM39.8016 28.682V13.3091H41.528L41.614 16.643C42.2755 14.3741 43.6845 13.3091 45.9269 13.3091H47.5939V15.2936H45.7814C43.1354 15.2936 41.7 17.106 41.7 19.6924V28.6886H39.8016V28.682ZM49.0888 28.682V7.56079H50.9542V21.2403L60.1819 13.3091H62.7419L55.5846 19.4874L63.1454 28.682H60.7905L54.2087 20.6648L50.9608 23.5092V28.682H49.0954H49.0888ZM68.8408 28.682L62.9205 13.3091H64.9314L70.0182 26.7835L75.105 13.3091H77.1159L71.1692 28.682H68.8408ZM78.644 28.682V13.3091H80.5094V28.682H78.644ZM78.4455 10.5772V7.8783H80.688V10.5772H78.4455ZM87.9246 28.682L82.0043 13.3091H84.0152L89.1021 26.7835L94.1889 13.3091H96.1998L90.253 28.682H87.9246ZM98.2107 21.0088C98.2107 24.4882 99.9901 27.2466 103.556 27.2466C107.121 27.2466 108.874 24.4882 108.874 21.0088C108.874 17.5294 107.094 14.7445 103.556 14.7445C100.017 14.7445 98.2107 17.5029 98.2107 21.0088ZM96.2527 20.9823C96.2527 16.213 99.1236 12.9916 103.549 12.9916C107.974 12.9916 110.819 16.213 110.819 20.9823C110.819 25.7516 107.948 28.9995 103.549 28.9995C99.15 28.9995 96.2527 25.7781 96.2527 20.9823Z" fill="white"/>
<path d="M155.063 0.668091H123.742C121.345 0.668091 119.402 2.61088 119.402 5.00743V36.3287C119.402 38.7253 121.345 40.6681 123.742 40.6681H155.063C157.46 40.6681 159.402 38.7253 159.402 36.3287V5.00743C159.402 2.61088 157.46 0.668091 155.063 0.668091Z" stroke="url(#paint0_linear_39_22898)" stroke-width="1.3362"/>
<path d="M125.441 28.0205V13.4612H128.901V19.2624H134.259V13.4612H137.738V28.0205H134.259V22.0936H128.901V28.0205H125.441Z" fill="white"/>
<path d="M142.561 20.7508C142.561 23.701 144.07 25.4539 146.411 25.4539C148.753 25.4539 150.261 23.7208 150.261 20.7508C150.261 17.7807 148.733 16.0278 146.411 16.0278C144.09 16.0278 142.561 17.7608 142.561 20.7508ZM138.996 20.7508C138.996 16.0873 141.946 13.1768 146.425 13.1768C150.903 13.1768 153.833 16.0674 153.833 20.7508C153.833 23.2115 153.02 25.1695 151.617 26.4726L152.424 27.6501C153.119 28.6621 152.391 30.038 151.167 30.038C150.645 30.038 150.162 29.7734 149.884 29.3368L148.951 27.9213C148.197 28.166 147.344 28.3049 146.425 28.3049C141.926 28.3049 138.996 25.4142 138.996 20.7508Z" fill="white"/>
<defs>
<linearGradient id="paint0_linear_39_22898" x1="119.437" y1="-2.4476" x2="159.332" y2="46.4356" gradientUnits="userSpaceOnUse">
<stop stop-color="white"/>
<stop offset="1" stop-color="white" stop-opacity="0.3"/>
</linearGradient>
</defs>
</svg>
