<svg role="img" viewBox="0 0 150 157" xmlns="http://www.w3.org/2000/svg">
  <title>Voyage AI</title>
  <path d="M47.4375 35.375V35.625C47.3542 35.8333 47.2917 36.1458 47.25 36.5625C47.2083 36.9792 47.1875 37.3542 47.1875 37.6875C47.1875 38.9792 47.3542 40.4167 47.6875 42C48.0625 43.5417 48.75 45.4792 49.75 47.8125L77.4375 110.25L104.188 48.3125C104.812 46.7708 105.479 45.0833 106.188 43.25C106.896 41.4167 107.25 39.5625 107.25 37.6875C107.25 37.1875 107.208 36.7708 107.125 36.4375C107.042 36.0625 106.958 35.7917 106.875 35.625V35.375H119.688V35.625C118.896 36.4167 117.938 37.8333 116.812 39.875C115.688 41.9167 114.458 44.4375 113.125 47.4375L77.3125 126.938H72.3125L38.375 50.5C37.5833 48.7083 36.75 46.9792 35.875 45.3125C35.0417 43.6458 34.25 42.1458 33.5 40.8125C32.75 39.4375 32.0833 38.2917 31.5 37.375C30.9167 36.4583 30.5208 35.875 30.3125 35.625V35.375H47.4375Z"/>
</svg>
